<svg width="800px" height="800px" viewBox="0 0 1024 1024" class="icon"  version="1.1" xmlns="http://www.w3.org/2000/svg"><path d="M511.9744 515.24096m-492.52864 0a492.52864 492.52864 0 1 0 985.05728 0 492.52864 492.52864 0 1 0-985.05728 0Z" fill="#365C3C" /><path d="M422.3744 524.15488C399.95392 325.09952 499.57376 140.53376 661.5552 44.84096c179.20512 57.26208 317.3888 215.04512 339.80416 414.10048 22.42048 199.05536-77.19936 383.62112-239.1808 479.31392-179.20512-57.26208-317.38368-215.04512-339.80416-414.10048z" fill="#A6EDAA" /><path d="M602.07616 512.62464c-4.51072-200.26368-128.01024-369.78176-301.37344-442.85952C130.80576 150.56896 15.06304 325.4784 19.57376 525.74208c4.51072 200.26368 128.01024 369.78176 301.37344 442.85952 169.89184-80.80896 285.63968-255.71328 281.12896-455.97696z" fill="#97CF43" /><path d="M585.26208 462.92992C468.7872 299.96032 271.2832 229.38624 86.8608 266.59328c-94.91968 162.432-92.1088 372.15232 24.36608 535.12192s313.97888 233.54368 498.39616 196.33664c94.9248-162.432 92.11392-372.1472-24.36096-535.12192z" fill="#30C03F" /><path d="M440.02816 462.92992c116.47488-162.9696 313.97888-233.54368 498.39616-196.33664 94.91968 162.432 92.1088 372.15232-24.36608 535.12192s-313.97888 233.54368-498.39616 196.33664c-94.91968-162.432-92.10368-372.1472 24.36608-535.12192z" fill="#52D15B" /></svg>